<svg xmlns="http://www.w3.org/2000/svg" viewBox="0 0 32 32" width="32" height="32">
  <rect width="32" height="32" rx="4" fill="#2d2d2d"/>
<defs>
    <clipPath id="clip-32">
      <circle cx="300" cy="200" r="220" transform="rotate(15, 300, 200)"/>
    </clipPath>
  </defs>
  <g opacity="1" stroke="#b87333" stroke-width="15.625" fill="none"
     transform="translate(-3.1999999999999993, 3.1999999999999993) scale(0.064) rotate(15, 300, 200)"
     clip-path="url(#clip-32)">
    <path d="M 300.0 448.5 C 309.8 445.0, 318.9 440.5, 327.3 435.7 C 335.7 430.8, 343.3 425.2, 350.4 419.3 C 357.5 413.4, 363.9 406.9, 369.8 400.1 C 375.7 393.4, 381.0 386.2, 385.7 378.7 C 390.5 371.3, 394.7 363.6, 398.4 355.7 C 402.2 347.7, 405.3 339.5, 408.1 331.2 C 410.8 322.9, 413.1 314.4, 414.9 305.8 C 416.7 297.2, 418.1 288.4, 419.0 279.7 C 420.0 270.9, 420.4 262.0, 420.5 253.1 C 420.6 244.2, 420.3 235.3, 419.6 226.4 C 418.8 217.5, 417.7 208.6, 416.2 199.8 C 414.7 191.0, 412.8 182.2, 410.5 173.5 C 408.2 164.8, 405.5 156.2, 402.5 147.8 C 399.5 139.4, 396.1 131.0, 392.4 122.9 C 388.7 114.8, 384.6 106.8, 380.1 99.1 C 375.7 91.4, 370.9 83.9, 365.8 76.7 C 360.7 69.5, 355.2 62.5, 349.5 55.8 C 343.7 49.2, 337.6 42.8, 331.1 36.9 C 324.7 30.9, 317.9 25.3, 310.9 20.2 C 303.8 15.0, 296.4 10.3, 288.7 6.0 C 281.0 1.8, 272.9 -2.0, 264.6 -5.1 C 256.2 -8.2, 247.6 -10.9, 238.6 -12.7 C 229.7 -14.6, 220.4 -15.9, 210.8 -16.2 C 201.3 -16.6, 191.4 -16.3, 181.3 -14.8 C 171.2 -13.3, 160.8 -11.1, 150.3 -7.4 C 139.8 -3.8, 128.9 0.8, 118.2 7.2 C 107.5 13.6, 96.5 21.1, 86.0 30.7 C 75.6 40.3, 65.0 51.5, 55.7 64.8 C 46.4 78.2, 37.1 93.6, 30.2 110.9 C 23.3 128.1, 17.1 147.9, 14.2 168.4 C 11.3 188.9, 10.3 212.0, 12.7 233.9 C 15.0 255.9, 20.5 279.5, 28.4 300.3 C 36.2 321.2, 47.6 341.8, 59.8 359.2 C 71.9 376.6, 86.8 392.0, 101.3 404.7 C 115.8 417.3, 131.7 427.2, 146.6 435.2 C 161.6 443.1, 176.8 448.3, 191.0 452.2 C 205.2 456.1, 219.0 457.8, 231.9 458.5 C 244.8 459.2, 256.9 458.3, 268.3 456.6 Z"/>
    <path d="M 300.0 448.5 C 294.4 446.5, 289.1 444.2, 284.1 441.7 C 279.0 439.3, 274.1 436.6, 269.5 433.7 C 264.8 430.9, 260.4 427.8, 256.2 424.6 C 252.0 421.4, 248.0 418.0, 244.1 414.5 C 240.3 411.0, 236.7 407.4, 233.3 403.6 C 229.9 399.9, 226.6 396.0, 223.5 392.0 C 220.5 388.0, 217.6 383.9, 214.9 379.7 C 212.2 375.5, 209.6 371.2, 207.3 366.9 C 204.9 362.5, 202.7 358.1, 200.6 353.6 C 198.6 349.1, 196.7 344.5, 194.9 339.8 C 193.2 335.2, 191.6 330.5, 190.2 325.8 C 188.8 321.0, 187.5 316.2, 186.3 311.4 C 185.2 306.6, 184.2 301.7, 183.4 296.8 C 182.5 291.9, 181.8 286.9, 181.2 282.0 C 180.7 277.0, 180.2 272.0, 179.9 267.0 C 179.6 262.0, 179.5 257.0, 179.5 252.0 C 179.4 246.9, 179.5 241.9, 179.8 236.9 C 180.0 231.8, 180.4 226.8, 180.9 221.8 C 181.3 216.7, 182.0 211.7, 182.7 206.7 C 183.5 201.7, 184.3 196.7, 185.3 191.7 C 186.3 186.8, 187.4 181.8, 188.6 176.9 C 189.9 172.0, 191.2 167.1, 192.7 162.2 C 194.2 157.4, 195.8 152.6, 197.5 147.8 C 199.2 143.0, 201.0 138.3, 202.9 133.6 C 204.9 128.9, 206.9 124.3, 209.1 119.7 C 211.2 115.2, 213.5 110.7, 215.9 106.2 C 218.3 101.8, 220.8 97.4, 223.4 93.1 C 226.0 88.8, 228.7 84.6, 231.6 80.5 C 234.4 76.3, 237.3 72.3, 240.4 68.3 C 243.4 64.3, 246.5 60.5, 249.8 56.7 C 253.0 52.9, 256.4 49.2, 259.9 45.7 C 263.3 42.1, 266.9 38.7, 270.6 35.3 C 274.2 32.0, 278.0 28.8, 281.9 25.7 C 285.7 22.6, 289.7 19.7, 293.8 16.9 C 297.9 14.1, 302.1 11.4, 306.3 8.9 C 310.6 6.4, 315.0 4.0, 319.5 1.8 C 324.0 -0.4, 328.6 -2.4, 333.2 -4.3 C 337.9 -6.1, 342.7 -7.8, 347.6 -9.2 C 352.5 -10.7, 357.5 -11.9, 362.5 -13.0 C 367.6 -14.0, 372.8 -14.8, 378.1 -15.4 C 383.3 -16.0, 388.7 -16.3, 394.2 -16.4 C 399.6 -16.4, 405.2 -16.2, 410.8 -15.7 C 416.5 -15.2, 422.2 -14.4, 428.0 -13.3 C 433.8 -12.1, 439.7 -10.7, 445.6 -8.8 C 451.5 -6.9, 457.5 -4.7, 463.6 -2.1 C 469.6 0.6, 475.7 3.6, 481.8 7.2 C 487.9 10.8, 494.0 14.7, 500.1 19.3 C 506.1 23.8, 512.2 28.9, 518.1 34.5 C 524.0 40.2, 529.8 46.4, 535.4 53.2 C 541.0 60.1, 546.5 67.6, 551.6 75.7 C 556.7 83.8, 561.6 92.6, 565.9 102.0 C 570.2 111.4, 574.2 121.5, 577.5 132.1 C 580.7 142.7, 583.5 154.0, 585.3 165.7 C 587.2 177.3, 588.4 189.6, 588.7 202.0 C 588.9 214.3, 588.3 227.2, 586.7 239.8 C 585.1 252.4, 582.5 265.3, 579.0 277.7 C 575.6 290.1, 571.1 302.4, 566.0 314.0 C 560.8 325.7, 554.7 337.0, 548.1 347.4 C 541.6 357.8, 534.2 367.7, 526.6 376.7 C 519.0 385.7, 510.8 393.9, 502.5 401.3 C 494.3 408.7, 485.7 415.3, 477.1 421.1 C 468.6 426.9, 459.9 431.9, 451.4 436.2 C 442.9 440.5, 434.3 444.0, 426.0 447.0 C 417.7 450.0, 409.5 452.2, 401.6 454.0 C 393.6 455.8, 385.9 457.0, 378.3 457.8 C 370.8 458.6, 363.6 458.8, 356.5 458.7 C 349.5 458.6, 342.7 458.1, 336.2 457.2 C 329.7 456.4, 323.4 455.2, 317.4 453.7 Z"/>
    <path d="M 450.2 70.0 C 447.9 74.2, 445.0 78.2, 441.8 81.9 C 438.7 85.6, 435.0 89.1, 431.2 92.4 C 427.3 95.6, 423.1 98.6, 418.6 101.5 C 414.1 104.3, 409.4 106.8, 404.4 109.2 C 399.5 111.6, 394.3 113.7, 388.9 115.7 C 383.6 117.6, 378.0 119.3, 372.4 120.9 C 366.7 122.4, 360.9 123.7, 355.0 124.9 C 349.1 126.0, 343.1 127.0, 337.0 127.7 C 330.9 128.5, 324.8 129.1, 318.6 129.4 C 312.4 129.8, 306.2 130.0, 300.0 130.0 C 293.8 130.0, 287.6 129.8, 281.4 129.4 C 275.2 129.1, 269.1 128.5, 263.0 127.7 C 256.9 127.0, 250.9 126.0, 245.0 124.9 C 239.1 123.7, 233.3 122.4, 227.6 120.9 C 222.0 119.3, 216.4 117.6, 211.1 115.7 C 205.7 113.7, 200.5 111.6, 195.6 109.2 C 190.6 106.8, 185.9 104.3, 181.4 101.5 C 176.9 98.6, 172.7 95.6, 168.8 92.4 C 165.0 89.1, 161.3 85.6, 158.2 81.9 C 155.0 78.2, 152.1 74.2, 149.8 70.0 C 147.4 65.8, 145.4 61.3, 144.1 56.6 C 142.7 51.8, 141.8 46.9, 141.6 41.7 C 141.4 36.5, 141.7 31.0, 142.9 25.4 C 144.1 19.7, 145.9 13.8, 148.7 7.9 C 151.5 1.9, 155.1 -4.3, 159.7 -10.4 C 164.4 -16.4, 169.9 -22.7, 176.6 -28.5 C 183.3 -34.4, 191.0 -40.3, 199.7 -45.4 C 208.4 -50.6, 218.4 -55.5, 228.9 -59.4 C 239.5 -63.3, 251.2 -66.7, 263.0 -68.8 C 274.9 -70.9, 287.7 -72.1, 300.0 -72.1 C 312.3 -72.1, 325.1 -70.9, 337.0 -68.8 C 348.8 -66.7, 360.5 -63.3, 371.1 -59.4 C 381.6 -55.5, 391.6 -50.6, 400.3 -45.4 C 409.0 -40.3, 416.7 -34.4, 423.4 -28.5 C 430.1 -22.7, 435.6 -16.4, 440.3 -10.4 C 444.9 -4.3, 448.5 1.9, 451.3 7.9 C 454.1 13.8, 455.9 19.7, 457.1 25.4 C 458.3 31.0, 458.6 36.5, 458.4 41.7 C 458.2 46.9, 457.3 51.8, 455.9 56.6 Z"/>
    <path d="M 119.0 356.7 C 123.1 355.7, 127.6 354.9, 132.3 354.3 C 137.0 353.6, 142.1 353.1, 147.3 352.7 C 152.5 352.3, 157.9 352.0, 163.6 351.7 C 169.2 351.4, 175.0 351.3, 181.0 351.1 C 187.0 351.0, 193.1 350.9, 199.4 350.9 C 205.7 350.8, 212.1 350.8, 218.6 350.8 C 225.1 350.7, 231.7 350.7, 238.4 350.8 C 245.1 350.8, 251.9 350.8, 258.7 350.8 C 265.5 350.8, 272.4 350.8, 279.3 350.8 C 286.1 350.8, 293.1 350.8, 300.0 350.8 C 306.9 350.8, 313.9 350.8, 320.7 350.8 C 327.6 350.8, 334.5 350.8, 341.3 350.8 C 348.1 350.8, 354.9 350.8, 361.6 350.8 C 368.3 350.7, 374.9 350.7, 381.4 350.8 C 387.9 350.8, 394.3 350.8, 400.6 350.9 C 406.9 350.9, 413.0 351.0, 419.0 351.1 C 425.0 351.3, 430.8 351.4, 436.4 351.7 C 442.1 352.0, 447.5 352.3, 452.7 352.7 C 457.9 353.1, 463.0 353.6, 467.7 354.3 C 472.4 354.9, 476.9 355.7, 481.0 356.7 C 485.2 357.7, 489.1 358.8, 492.5 360.3 C 495.9 361.7, 499.1 363.3, 501.6 365.4 C 504.2 367.5, 506.4 369.8, 507.8 372.7 C 509.3 375.6, 510.3 378.8, 510.3 382.9 C 510.2 386.9, 509.7 391.3, 507.5 396.8 C 505.3 402.2, 502.5 408.4, 497.1 415.5 C 491.8 422.6, 485.4 430.9, 475.4 439.5 C 465.4 448.2, 453.3 458.5, 436.9 467.3 C 420.5 476.2, 399.9 486.5, 377.1 492.5 C 354.3 498.4, 325.7 503.2, 300.0 503.2 C 274.3 503.2, 245.7 498.4, 222.9 492.5 C 200.1 486.5, 179.5 476.2, 163.1 467.3 C 146.7 458.5, 134.6 448.2, 124.6 439.5 C 114.6 430.9, 108.2 422.6, 102.9 415.5 C 97.5 408.4, 94.7 402.2, 92.5 396.8 C 90.3 391.3, 89.8 386.9, 89.7 382.9 C 89.7 378.8, 90.7 375.6, 92.2 372.7 C 93.6 369.8, 95.8 367.5, 98.4 365.4 C 100.9 363.3, 104.1 361.7, 107.5 360.3 Z"/>
    <path d="M 520.0 200.0 C 515.9 202.4, 511.6 204.6, 507.3 206.7 C 502.9 208.8, 498.3 210.8, 493.7 212.7 C 489.0 214.5, 484.2 216.3, 479.3 218.0 C 474.5 219.7, 469.4 221.3, 464.3 222.7 C 459.2 224.2, 454.0 225.6, 448.7 227.0 C 443.4 228.3, 438.0 229.5, 432.5 230.6 C 427.0 231.8, 421.4 232.9, 415.8 233.8 C 410.2 234.8, 404.5 235.7, 398.7 236.5 C 393.0 237.4, 387.1 238.1, 381.3 238.8 C 375.4 239.5, 369.5 240.1, 363.5 240.6 C 357.6 241.1, 351.5 241.5, 345.5 241.9 C 339.5 242.3, 333.4 242.6, 327.4 242.8 C 321.3 243.0, 315.2 243.2, 309.1 243.2 C 303.1 243.3, 296.9 243.3, 290.9 243.2 C 284.8 243.2, 278.7 243.0, 272.6 242.8 C 266.6 242.6, 260.5 242.3, 254.5 241.9 C 248.5 241.5, 242.4 241.1, 236.5 240.6 C 230.5 240.1, 224.6 239.5, 218.7 238.8 C 212.9 238.1, 207.0 237.4, 201.3 236.5 C 195.5 235.7, 189.8 234.8, 184.2 233.8 C 178.6 232.9, 173.0 231.8, 167.5 230.6 C 162.0 229.5, 156.6 228.3, 151.3 227.0 C 146.0 225.6, 140.8 224.2, 135.7 222.7 C 130.6 221.3, 125.5 219.7, 120.7 218.0 C 115.8 216.3, 111.0 214.5, 106.3 212.7 C 101.7 210.8, 97.1 208.8, 92.7 206.7 C 88.4 204.6, 84.1 202.4, 80.0 200.0 C 75.9 197.6, 71.9 195.2, 68.2 192.5 C 64.4 189.9, 60.8 187.1, 57.4 184.1 C 53.9 181.2, 50.7 178.1, 47.7 174.7 C 44.7 171.3, 41.8 167.8, 39.3 163.9 C 36.7 160.0, 34.4 156.0, 32.4 151.5 C 30.4 147.0, 28.6 142.3, 27.4 136.9 C 26.1 131.6, 25.1 126.0, 24.7 119.6 C 24.4 113.1, 24.4 106.3, 25.4 98.3 C 26.5 90.4, 27.9 81.8, 31.2 71.7 C 34.6 61.5, 38.2 50.5, 45.6 37.5 C 53.0 24.4, 60.9 9.5, 75.7 -6.5 C 90.5 -22.5, 107.8 -42.8, 134.6 -58.6 C 161.4 -74.4, 198.2 -94.2, 236.3 -101.3 C 274.5 -108.4, 325.5 -108.4, 363.7 -101.3 C 401.8 -94.2, 438.6 -74.4, 465.4 -58.6 C 492.2 -42.8, 509.5 -22.5, 524.3 -6.5 C 539.1 9.5, 547.0 24.4, 554.4 37.5 C 561.8 50.5, 565.4 61.5, 568.8 71.7 C 572.1 81.8, 573.5 90.4, 574.6 98.3 C 575.6 106.3, 575.6 113.1, 575.3 119.6 C 574.9 126.0, 573.9 131.6, 572.6 136.9 C 571.4 142.3, 569.6 147.0, 567.6 151.5 C 565.6 156.0, 563.3 160.0, 560.7 163.9 C 558.2 167.8, 555.3 171.3, 552.3 174.7 C 549.3 178.1, 546.1 181.2, 542.6 184.1 C 539.2 187.1, 535.6 189.9, 531.8 192.5 Z"/>
  </g>
  <circle cx="16" cy="16" r="14.08" stroke="#b87333" stroke-width="1" fill="none" opacity="1"
     transform="rotate(15, 16, 16)"/>
</svg>